<?xml version="1.0" encoding="utf-8"?>
<svg version="1.1" xmlns:xlink="http://www.w3.org/1999/xlink" width="43px" height="41px" xmlns="http://www.w3.org/2000/svg">
  <g transform="matrix(1 0 0 1 -568 -715 )">
    <path d="M 42 20.122157205306802  C 42 9.009055745859305  32.59799256940436 0  21 0  C 9.402013152306868 0  0 9.009055745859305  0 20.122157205306802  C 0 30.165719386314915  7.6793975800976 38.49053609710323  17.718749284786103 40  C 17.718749284786103 40  17.718749284786103 25.938707782448486  17.718749284786103 25.938707782448486  L 12.386720925442287 25.938707782448486  L 12.386720925442287 20.122157205306802  L 17.718749284786103 20.122157205306802  C 17.718749284786103 20.122157205306802  17.718749284786103 15.689098774003522  17.718749284786103 15.689098774003522  C 17.718749284786103 10.645834128032071  20.853905640081475 7.860173790977822  25.65076327627727 7.860173790977822  C 27.948335490630384 7.860173790977822  30.35156291720811 8.253225203506336  30.35156291720811 8.253225203506336  C 30.35156291720811 8.253225203506336  30.35156291720811 13.20506267308483  30.35156291720811 13.20506267308483  C 30.35156291720811 13.20506267308483  27.703513003542373 13.20506267308483  27.703513003542373 13.20506267308483  C 25.09479604006724 13.20506267308483  24.281254529688052 14.756150964700138  24.281254529688052 16.347581955644618  C 24.281254529688052 16.347581955644618  24.281254529688052 20.122157205306802  24.281254529688052 20.122157205306802  L 30.105468302991312 20.122157205306802  L 29.174414287494375 25.938707782448486  L 24.281254529688052 25.938707782448486  C 24.281254529688052 25.938707782448486  24.281254529688052 40  24.281254529688052 40  C 34.32060528075801 38.49053609710323  42 30.165719386314915  42 20.122157205306802  Z " fill-rule="nonzero" fill="#1777f1" stroke="none" transform="matrix(1 0 0 1 568 715 )" />
  </g>
</svg>