<svg xmlns="http://www.w3.org/2000/svg" width="18" height="18" viewBox="0 0 40 40">
  <path id="Icon_awesome-whatsapp" data-name="Icon awesome-whatsapp" d="M32.788,7.966A18.78,18.78,0,0,0,19.274,2.25,19.327,19.327,0,0,0,.164,21.742a19.815,19.815,0,0,0,2.548,9.746L0,41.585l10.132-2.713a18.758,18.758,0,0,0,9.133,2.371h.009A19.486,19.486,0,0,0,38.564,21.751,19.76,19.76,0,0,0,32.788,7.966ZM19.274,37.959A15.62,15.62,0,0,1,11.182,35.7l-.577-.351L4.6,36.958l1.6-5.979-.379-.615a16.387,16.387,0,0,1-2.427-8.622,16.067,16.067,0,0,1,15.891-16.2,15.588,15.588,0,0,1,11.225,4.75,16.423,16.423,0,0,1,4.829,11.458A16.22,16.22,0,0,1,19.274,37.959Zm8.711-12.134c-.473-.246-2.823-1.422-3.262-1.58s-.758-.246-1.076.246-1.231,1.58-1.515,1.914-.56.369-1.033.123c-2.806-1.431-4.648-2.555-6.5-5.795-.491-.86.491-.8,1.4-2.66a.918.918,0,0,0-.043-.852c-.121-.246-1.076-2.643-1.472-3.617-.387-.948-.783-.817-1.076-.834-.275-.018-.594-.018-.912-.018a1.753,1.753,0,0,0-1.274.606,5.519,5.519,0,0,0-1.67,4.065,9.641,9.641,0,0,0,1.945,5.04c.241.325,3.366,5.242,8.161,7.358,3.03,1.335,4.218,1.449,5.733,1.22.921-.14,2.823-1.177,3.219-2.318a4.149,4.149,0,0,0,.275-2.318C28.777,26.185,28.459,26.062,27.985,25.825Z" transform="matrix(1, -0.017, 0.017, 1, -0.039, -1.577)" fill="#fff"/>
</svg>
