<?xml version="1.0" encoding="utf-8"?>
<svg version="1.1" xmlns:xlink="http://www.w3.org/1999/xlink" width="22px" height="19px" xmlns="http://www.w3.org/2000/svg">
  <g transform="matrix(1 0 0 1 -128 -722 )">
    <path d="M 22 1.781249864101369  C 22 0.7978514110296828  21.178819962894437 0  20.166666783226844 0  C 20.166666783226844 0  1.8333333916134222 0  1.8333333916134222 0  C 0.8211806490465392 0  0 0.7978514110296828  0 1.781249864101369  C 0 1.781249864101369  0 13.656247508526008  0 13.656247508526008  C 0 14.63964732058355  0.8211806490465392 15.43749737262749  1.8333333916134222 15.43749737262749  C 1.8333333916134222 15.43749737262749  9.166667482587968 15.43749737262749  9.166667482587968 15.43749737262749  L 8.55555594408952 17.21874868631369  C 8.55555594408952 17.21874868631369  5.805555769249224 17.21874868631369  5.805555769249224 17.21874868631369  C 5.297569923555386 17.21874868631369  4.888889510543208 17.615818968519648  4.888889510543208 18.1093721687796  C 4.888889510543208 18.60292971779404  5.297569923555386 19  5.805555769249224 19  C 5.805555769249224 19  16.19444527979246 19  16.19444527979246 19  C 16.702430426125176 19  17.11111188817901 18.60292971779404  17.11111188817901 18.1093721687796  C 17.11111188817901 17.615818968519648  16.702430426125176 17.21874868631369  16.19444527979246 17.21874868631369  C 16.19444527979246 17.21874868631369  13.444445454632728 17.21874868631369  13.444445454632728 17.21874868631369  L 12.833333916134281 15.43749737262749  C 12.833333916134281 15.43749737262749  20.166666783226844 15.43749737262749  20.166666783226844 15.43749737262749  C 21.178819962894437 15.43749737262749  22 14.63964732058355  22 13.656247508526008  C 22 13.656247508526008  22 1.781249864101369  22 1.781249864101369  Z M 19.55555804217289 2.375  L 19.55555804217289 7.554054054054063  L 19.55555804217289 13  L 2.444444755271604 13  L 2.444444755271604 2.375  L 19.55555804217289 2.375  Z " fill-rule="nonzero" fill="#222222" stroke="none" transform="matrix(1 0 0 1 128 722 )" />
  </g>
</svg>