<?xml version="1.0" encoding="utf-8"?>
<svg version="1.1" xmlns:xlink="http://www.w3.org/1999/xlink" width="18px" height="19px" xmlns="http://www.w3.org/2000/svg">
  <g transform="matrix(1 0 0 1 -130 -768 )">
    <path d="M 16.527777471542358 4.875000921848657  L 14.166664342880248 4.875000921848657  C 14.166664342880248 4.875000921848657  14.166664342880248 0.7196248892464685  14.166664342880248 0.7196248892464685  C 14.166664342880248 0.32212496694514103  13.744026174545288 0  13.222222204208373 0  C 12.700415639877322 0  12.277777471542358 0.32212496694514103  12.277777471542358 0.7196248892464685  C 12.277777471542358 0.7196248892464685  12.277777471542358 4.875000921848657  12.277777471542358 4.875000921848657  L 4.722222852706908 4.875000921848657  C 4.722222852706908 4.875000921848657  4.722222852706908 0.7196248892464685  4.722222852706908 0.7196248892464685  C 4.722222852706908 0.32212496694514103  4.299582738876344 0  3.7773060131072986 0  C 3.2554997730255146 0  2.8333337116241464 0.32212496694514103  2.8333337116241464 0.7196248892464685  C 2.8333337116241464 0.7196248892464685  2.8333337116241464 4.875000921848657  2.8333337116241464 4.875000921848657  C 2.8333337116241464 4.875000921848657  0.4722225284576416 4.875000921848657  0.4722225284576416 4.875000921848657  C 0.21108351707458495 4.875000921848657  0 5.200874290044845  0 5.399626572278727  C 0 5.399626572278727  0 7.2000001580312  0 7.2000001580312  C 0 9.359624486266911  4.722222204208374 11.867249315988296  4.722222204208374 15.33599381781953  C 4.722222204208374 15.33599381781953  4.722222204208374 16.499997892917357  4.722222204208374 16.499997892917357  L 6.61111102104187 16.499997892917357  L 6.61111102104187 18  L 10.38889060020447 18  L 10.38889060020447 16.499997892917357  L 12.277780065536499 16.499997892917357  C 12.277780065536499 16.499997892917357  12.277780065536499 15.335995398131509  12.277780065536499 15.335995398131509  C 12.277780065536499 11.867249315988296  16.999999837875365 9.359250742483244  16.999999837875365 7.2000001580312  C 16.999999837875365 7.2000001580312  16.999999837875365 5.399626572278727  16.999999837875365 5.399626572278727  C 16.999999837875365 5.200874290044845  16.788917455673218 4.875000921848657  16.527777471542358 4.875000921848657  Z M 7.983861799240112 11.020499982616567  C 8.014557180404662 10.941748295633527  7.95222155570984 10.874999078151346  7.844084424972533 10.874999078151346  C 7.844084424972533 10.874999078151346  6.009500875473022 10.874999078151346  6.009500875473022 10.874999078151346  C 5.900888395309449 10.874999078151346  5.870193662643432 10.826249614140494  5.939139432907106 10.762875152895184  C 5.939139432907106 10.762875152895184  9.7192782497406 6.953249455055753  9.792946386337281 6.879749934943823  C 9.848667974472045 6.81000049516442  9.910056142807006 6.834374437013857  9.890694570541381 6.914625840067511  C 9.861418752670287 7.01625017251739  9.054388914108277 9.615374275822035  9.054388914108277 9.615374275822035  C 9.015195608139036 9.691874018231182  9.07186141014099 9.749999473229337  9.179056272506715 9.749999473229337  C 9.179056272506715 9.749999473229337  11.014582738876342 9.749999473229337  11.014582738876342 9.749999473229337  C 11.122723760604858 9.749999473229337  11.157195348739625 9.807750394287838  11.091084814071657 9.872999895699412  C 11.091084814071657 9.872999895699412  7.305279417037965 13.77374796271447  7.237278509140015 13.83899746412604  C 7.168808088302613 13.90424696553761  7.105528898239136 13.884372962056007  7.140001783370973 13.773375009086793  C 7.140001783370973 13.773375009086793  7.983861799240112 11.020499982616567  7.983861799240112 11.020499982616567  Z " fill-rule="nonzero" fill="#000000" stroke="none" transform="matrix(1 0 0 1 130 768 )" />
  </g>
</svg>