<?xml version="1.0" encoding="utf-8"?>
<svg version="1.1" xmlns:xlink="http://www.w3.org/1999/xlink" width="22px" height="16px" xmlns="http://www.w3.org/2000/svg">
  <g transform="matrix(1 0 0 1 -128 -677 )">
    <path d="M 21.82501280498413 4.388572104911703  C 15.73479090005689 -1.463927667566667  6.262755491552002 -1.4617846398021939  0.17493961860847163 4.388572104911703  C -0.05399800558079734 4.608571241800158  -0.05846677062240624 4.981071911633535  0.16290835501033643 5.209285271221403  C 0.16290835501033643 5.209285271221403  1.339909039327995 6.422500816904762  1.339909039327995 6.422500816904762  C 1.5509718765387512 6.6403568382249425  1.8905968832403217 6.644998499213267  2.1099097347709503 6.436070370018038  C 7.125912671540665 1.6617864573412042  14.873354148604442 1.6607148995570278  19.890386719891325 6.436070370018038  C 20.109699396581675 6.6449992016437935  20.449325976845973 6.640000003512154  20.660388988897008 6.422500816904762  C 20.660388988897008 6.422500816904762  21.83739009938785 5.209285271221403  21.83739009938785 5.209285271221403  C 22.058421805892042 4.981071911633535  22.053952887865098 4.608571241800158  21.82501280498413 4.388571051265894  Z M 13.199978633535371 13.714285413244077  C 13.199978633535371 12.45178593622553  12.21513400458866 11.428570826488114  10.999977845460357 11.428570826488114  C 9.784821686332055 11.428570826488114  8.799977057385341 12.45178593622553  8.799977057385341 13.714285413244077  C 8.799977057385341 14.976789104845782  9.784821686332055 16  10.999977845460357 16  C 12.21513400458866 16  13.199978633535371 14.976789104845782  13.199978633535371 13.714285413244077  Z M 17.98601080386506 9.269998976646514  C 18.211514225840865 9.03928636920811  18.20360864690876 8.660713538597903  17.966761586373316 8.443213649559945  C 16.792173979828448 7.36399892195162  15.437254356145178 6.605071892219507  14.009041012981282 6.166125528170878  C 10.619673100355254 5.1244389140586835  6.817525786635376 5.884836141216182  4.033192006463764 8.443213649559945  C 3.796004706707669 8.6610689684496  3.7884418147604806 9.03928636920811  4.013598703264887 9.269998976646514  C 4.013598703264887 9.269998976646514  5.19747383492731 10.483927489324925  5.19747383492731 10.483927489324925  C 5.403723493563629 10.695356271231784  5.735786482519474 10.709640196201164  5.955442895236483 10.512498148985792  C 8.841226779304304 7.920713504354407  13.165259546441963 7.926428479203204  16.044165912532275 10.512498148985792  C 16.26382127620747 10.709640196201164  16.59588776196924 10.695713105944572  16.802137770286194 10.483927489324925  C 16.802137770286194 10.483927489324925  17.98601080386506 9.269998976646514  17.98601080386506 9.269998976646514  Z " fill-rule="nonzero" fill="#000000" stroke="none" transform="matrix(1 0 0 1 128 677 )" />
  </g>
</svg>