<svg xmlns="http://www.w3.org/2000/svg" width="30" height="30" viewBox="0 0 21 21">
  <path id="Icon_awesome-wallet" data-name="Icon awesome-wallet" d="M18.016,6.536H3.125A.674.674,0,0,1,2.5,5.821a.674.674,0,0,1,.625-.714h15a.674.674,0,0,0,.625-.714A2.022,2.022,0,0,0,16.875,2.25H2.5A2.7,2.7,0,0,0,0,5.107V19.393A2.7,2.7,0,0,0,2.5,22.25H18.016A2.07,2.07,0,0,0,20,20.107V8.679A2.07,2.07,0,0,0,18.016,6.536ZM16.25,15.821A1.348,1.348,0,0,1,15,14.393a1.348,1.348,0,0,1,1.25-1.429,1.348,1.348,0,0,1,1.25,1.429A1.348,1.348,0,0,1,16.25,15.821Z" transform="translate(0.5 -1.75)" fill="none" stroke="#000" stroke-width="1"/>
</svg>
