<svg xmlns="http://www.w3.org/2000/svg" width="30" height="30" viewBox="0 0 21 21">
  <path id="Icon_awesome-calendar-check" data-name="Icon awesome-calendar-check" d="M19.464,6.25H.536A.506.506,0,0,1,0,5.781V4.375A2.022,2.022,0,0,1,2.143,2.5H4.286V.469A.506.506,0,0,1,4.821,0H6.607a.506.506,0,0,1,.536.469V2.5h5.714V.469A.506.506,0,0,1,13.393,0h1.786a.506.506,0,0,1,.536.469V2.5h2.143A2.022,2.022,0,0,1,20,4.375V5.781A.506.506,0,0,1,19.464,6.25ZM.536,7.5H19.464A.506.506,0,0,1,20,7.969V18.125A2.022,2.022,0,0,1,17.857,20H2.143A2.022,2.022,0,0,1,0,18.125V7.969A.506.506,0,0,1,.536,7.5Zm14.879,3.748-1.258-1.109a.591.591,0,0,0-.758,0L8.666,14.245,6.613,12.434a.591.591,0,0,0-.758,0l-1.268,1.1a.429.429,0,0,0,0,.663l3.688,3.253a.591.591,0,0,0,.758,0l6.382-5.539a.429.429,0,0,0,0-.663Z" transform="translate(0.5 0.5)" fill="none" stroke="#000" stroke-width="1"/>
</svg>
