<svg xmlns="http://www.w3.org/2000/svg" width="28" height="26" viewBox="0 0 40 38">
  <path id="Icon_awesome-smile-beam" data-name="Icon awesome-smile-beam" d="M21,2.563c-11.048,0-21,6.952-21,18a20,20,0,0,0,40,0C40,9.514,32.048,2.563,21,2.563ZM9.032,17.933c.266-3.4,2.6-5.758,4.516-5.758s4.25,2.363,4.516,5.758a.642.642,0,0,1-1.2.363L16.1,16.925a3.017,3.017,0,0,0-2.54-1.742,3.017,3.017,0,0,0-2.54,1.742L10.25,18.3A.652.652,0,0,1,9.032,17.933Zm20.226,9.9a12.047,12.047,0,0,1-18.516,0,1.291,1.291,0,0,1,1.984-1.653,9.476,9.476,0,0,0,14.548,0,1.291,1.291,0,0,1,1.984,1.653Zm.5-9.54-.766-1.371a3.017,3.017,0,0,0-2.54-1.742,3.017,3.017,0,0,0-2.54,1.742L23.145,18.3a.644.644,0,0,1-1.2-.363c.266-3.4,2.6-5.758,4.516-5.758s4.25,2.363,4.516,5.758A.652.652,0,0,1,29.758,18.3Z" transform="translate(0 -2.563)" fill="#fff708"/>
</svg>
