<?xml version="1.0" encoding="utf-8"?>
<svg version="1.1" xmlns:xlink="http://www.w3.org/1999/xlink" width="16px" height="23px" xmlns="http://www.w3.org/2000/svg">
  <g transform="matrix(1 0 0 1 -125 -747 )">
    <path d="M 10.828125 10.376953125  C 11.609375 9.628255208333332  12 8.72482638888889  12 7.666666666666668  C 12 6.608506944444443  11.609375 5.705078125  10.828125 4.956380208333332  C 10.046875 4.207682291666668  9.104166666666668 3.8333333333333326  8 3.8333333333333326  C 6.895833333333334 3.8333333333333326  5.953125 4.207682291666668  5.171875 4.956380208333332  C 4.390625 5.705078125  4 6.608506944444443  4 7.666666666666668  C 4 8.72482638888889  4.390625 9.628255208333332  5.171875 10.376953125  C 5.953125 11.125651041666668  6.895833333333334 11.5  8 11.5  C 9.104166666666668 11.5  10.046875 11.125651041666668  10.828125 10.376953125  Z M 13.65625 2.24609375  C 15.21875 3.7434895833333326  16 5.550347222222219  16 7.666666666666668  C 16 8.754774305555554  15.828125 9.64822048611111  15.484375 10.347005208333332  L 9.796875 21.936848958333332  C 9.630208333333334 22.266276041666668  9.3828125 22.525824652777775  9.0546875 22.715494791666668  C 8.7265625 22.905164930555557  8.375 23  8 23  C 7.625 23  7.2734375 22.905164930555557  6.9453125 22.715494791666668  C 6.6171875 22.525824652777775  6.375 22.266276041666668  6.21875 21.936848958333332  L 0.515625 10.347005208333332  C 0.171875 9.64822048611111  0 8.754774305555554  0 7.666666666666668  C 0 5.550347222222219  0.78125 3.7434895833333326  2.34375 2.24609375  C 3.9062500000000004 0.7486979166666675  5.791666666666667 0  8 0  C 10.208333333333334 0  12.09375 0.7486979166666675  13.65625 2.24609375  Z " fill-rule="nonzero" fill="#ffffff" stroke="none" transform="matrix(1 0 0 1 125 747 )" />
  </g>
</svg>