<svg xmlns="http://www.w3.org/2000/svg" width="19" height="32" viewBox="0 0 26 32">
  <path id="Icon_awesome-user-astronaut" data-name="Icon awesome-user-astronaut" d="M3.714,14H4.5A9.283,9.283,0,0,0,13,20a9.283,9.283,0,0,0,8.5-6h.783a.969.969,0,0,0,.929-1V7a.969.969,0,0,0-.929-1H21.5A9.283,9.283,0,0,0,13,0,9.283,9.283,0,0,0,4.5,6H3.714a.969.969,0,0,0-.929,1v6A.969.969,0,0,0,3.714,14ZM6.036,8.5A2.654,2.654,0,0,1,8.821,6h8.357a2.654,2.654,0,0,1,2.786,2.5V10a5.8,5.8,0,0,1-5.571,6H11.607a5.8,5.8,0,0,1-5.571-6ZM10.214,13l.7-2.25L13,10l-2.089-.75L10.214,7l-.7,2.25L7.429,10l2.089.75Zm8.8,7.087a10.407,10.407,0,0,1-12.025,0A8.168,8.168,0,0,0,0,28.4V29a2.9,2.9,0,0,0,2.786,3H7.429V28a1.93,1.93,0,0,1,1.857-2h7.429a1.93,1.93,0,0,1,1.857,2v4h4.643A2.9,2.9,0,0,0,26,29v-.6A8.168,8.168,0,0,0,19.013,20.087ZM15.786,28a1,1,0,1,0,.929,1A.969.969,0,0,0,15.786,28Zm-5.571,0a.969.969,0,0,0-.929,1v3h1.857V29A.969.969,0,0,0,10.214,28Z" fill="#fff"/>
</svg>
