<svg xmlns="http://www.w3.org/2000/svg" width="25" height="25" viewBox="0 0 50 50">
  <g id="Icon_ionic-ios-arrow-dropleft" data-name="Icon ionic-ios-arrow-dropleft" transform="translate(-3.375 -3.375)">
    <path id="Caminho_2967" data-name="Caminho 2967" d="M28.375,3.375a25,25,0,1,0,25,25A25,25,0,0,0,28.375,3.375ZM43.327,43.327a21.145,21.145,0,1,1-29.9-29.9,21.145,21.145,0,1,1,29.9,29.9Z" fill="#5b61c3"/>
    <path id="Caminho_2969" data-name="Caminho 2969" d="M27.779,10.64a2.427,2.427,0,0,0-3.322,0L12.847,21.828a2.19,2.19,0,0,0-.073,3.11l11.44,11.024a2.419,2.419,0,0,0,3.322.012,2.192,2.192,0,0,0,0-3.191l-9.711-9.469,9.967-9.481A2.192,2.192,0,0,0,27.779,10.64Z" transform="translate(6.934 5.07)" fill="#5b61c3"/>
  </g>
</svg>
